<svg width="44" height="44" viewBox="0 0 44 44" fill="none" xmlns="http://www.w3.org/2000/svg">
<path d="M11 25.4283C9.14092 25.0291 7.50958 23.9234 6.45011 22.3445C5.39064 20.7656 4.98587 18.8368 5.3212 16.9652C5.65653 15.0935 6.70573 13.4253 8.24747 12.3124C9.78922 11.1995 11.703 10.7289 13.585 11C14.0481 9.94883 14.7007 8.9918 15.51 8.17666C16.3615 7.32301 17.373 6.64572 18.4867 6.1836C19.6004 5.72148 20.7943 5.48361 22 5.48361C23.2057 5.48361 24.3996 5.72148 25.5133 6.1836C26.6269 6.64572 27.6385 7.32301 28.49 8.17666C29.2993 8.9918 29.9518 9.94883 30.415 11C32.297 10.7289 34.2108 11.1995 35.7525 12.3124C37.2943 13.4253 38.3435 15.0935 38.6788 16.9652C39.0141 18.8368 38.6094 20.7656 37.5499 22.3445C36.4904 23.9234 34.8591 25.0291 33 25.4283V38.5H11V25.4283Z" stroke="black" stroke-width="2" stroke-linecap="round" stroke-linejoin="round"/>
<path d="M11 31.1667H33" stroke="black" stroke-width="2" stroke-linecap="round" stroke-linejoin="round"/>
</svg>
