<svg width="35" height="35" viewBox="0 0 35 35" fill="none" xmlns="http://www.w3.org/2000/svg">
<rect width="35" height="35" rx="17.5" fill="#24ACFF"/>
<path d="M13.4401 26.39C21.6931 26.39 26.2116 19.551 26.2116 13.6185C26.2116 13.426 26.2116 13.23 26.1976 13.0375C27.0761 12.4005 27.8356 11.6165 28.4376 10.7135C27.6186 11.0775 26.7506 11.3155 25.8616 11.4205C26.7996 10.8605 27.4996 9.97849 27.8356 8.93899C26.9536 9.46049 25.9911 9.83149 24.9866 10.0275C23.2856 8.22149 20.4436 8.13399 18.6376 9.83149C17.4721 10.927 16.9786 12.5615 17.3391 14.119C13.7306 13.937 10.3671 12.2325 8.08858 9.42899C6.89858 11.48 7.50408 14.1015 9.47808 15.421C8.76408 15.4 8.06408 15.2075 7.44108 14.861C7.44108 14.8785 7.44108 14.8995 7.44108 14.917C7.44108 17.052 8.94608 18.893 11.0426 19.3165C10.3811 19.495 9.68808 19.523 9.01608 19.3935C9.60408 21.2205 11.2876 22.4735 13.2091 22.512C11.6201 23.7615 9.65658 24.4405 7.63708 24.437C7.28008 24.437 6.92308 24.416 6.56958 24.3705C8.61358 25.69 11.0041 26.39 13.4401 26.3865" fill="white"/>
</svg>
